<svg width="67.000000" height="66.000000" viewBox="0 0 67 66" fill="none" xmlns="http://www.w3.org/2000/svg" xmlns:xlink="http://www.w3.org/1999/xlink">
	<desc>
			Created with Pixso.
	</desc>
	<defs>
		<clipPath id="clip370726_494">
			<rect id="security-box" width="67.000000" height="66.000000" fill="white" fill-opacity="0"/>
		</clipPath>
	</defs>
	<rect id="security-box" width="67.000000" height="66.000000" fill="#FFFFFF" fill-opacity="0"/>
	<g clip-path="url(#clip370726_494)">
		<path id="Vector" d="M60.5094 61.5527L6.49063 61.5527C2.91815 61.5527 0 58.691 0 55.159L0 10.841C0 7.30899 2.91815 4.44727 6.49063 4.44727L41.9404 4.44727C42.9611 4.44727 43.7856 5.25937 43.7856 6.26483C43.7856 7.27032 42.9611 8.08243 41.9404 8.08243L6.49063 8.08243C4.94647 8.08243 3.69025 9.31992 3.69025 10.841L3.69025 55.159C3.69025 56.6801 4.94647 57.9176 6.49063 57.9176L60.5094 57.9176C62.0535 57.9176 63.3098 56.6801 63.3098 55.159L63.3098 10.841C63.3098 9.31992 62.0535 8.08243 60.5094 8.08243L52.5793 8.08243C51.5586 8.08243 50.7342 7.27032 50.7342 6.26483C50.7342 5.25937 51.5586 4.44727 52.5793 4.44727L60.5094 4.44727C64.0949 4.44727 67 7.32187 67 10.841L67 55.159C67 58.691 64.0818 61.5527 60.5094 61.5527Z" fill="#2D527C" fill-opacity="1.000000" fill-rule="nonzero"/>
		<path id="Vector" d="M53.8748 53.5347L18.1371 53.5347C17.1164 53.5347 16.292 52.7226 16.292 51.7171C16.292 50.7116 17.1164 49.8995 18.1371 49.8995L53.8748 49.8995C54.5815 49.8995 55.1572 49.3323 55.1572 48.6362L55.1572 17.3765C55.1572 16.6804 54.5815 16.1132 53.8748 16.1132L18.1371 16.1132C17.1164 16.1132 16.292 15.3011 16.292 14.2956C16.292 13.2901 17.1164 12.478 18.1371 12.478L53.8748 12.478C56.6229 12.478 58.8605 14.6823 58.8605 17.3893L58.8605 48.6362C58.8605 51.3304 56.6229 53.5347 53.8748 53.5347Z" fill="#2D527C" fill-opacity="1.000000" fill-rule="nonzero"/>
		<path id="Vector" d="M9.98453 53.5349C8.96381 53.5349 8.1394 52.7227 8.1394 51.7173L8.1394 14.2829C8.1394 13.2774 8.96381 12.4653 9.98453 12.4653C11.0052 12.4653 11.8297 13.2774 11.8297 14.2829L11.8297 51.7173C11.8427 52.7227 11.0052 53.5349 9.98453 53.5349Z" fill="#2D527C" fill-opacity="1.000000" fill-rule="nonzero"/>
		<path id="Vector" d="M42.6733 47.502C34.5601 47.502 27.9517 40.9922 27.9517 33C27.9517 25.0078 34.5601 18.498 42.6733 18.498C50.7866 18.498 57.395 25.0078 57.395 33C57.395 40.9922 50.7866 47.502 42.6733 47.502ZM42.6733 22.1332C36.5884 22.1332 31.6419 27.0059 31.6419 33C31.6419 38.9941 36.5884 43.8668 42.6733 43.8668C48.7583 43.8668 53.7048 38.9941 53.7048 33C53.7048 27.0059 48.7583 22.1332 42.6733 22.1332ZM42.6733 39.5613C38.9962 39.5613 36.0126 36.6223 36.0126 33C36.0126 29.3777 38.9962 26.4387 42.6733 26.4387C46.3505 26.4387 49.3341 29.3777 49.3341 33C49.3341 36.6223 46.3505 39.5613 42.6733 39.5613ZM42.6733 30.0738C41.0376 30.0738 39.7028 31.3887 39.7028 33C39.7028 34.6113 41.0376 35.9261 42.6733 35.9261C44.3091 35.9261 45.6439 34.6113 45.6439 33C45.6439 31.3887 44.3091 30.0738 42.6733 30.0738Z" fill="#F0BF5F" fill-opacity="1.000000" fill-rule="nonzero"/>
		<path id="Vector" d="M9.98462 39.7805L18.1241 39.7805L18.1241 45.6715L9.98462 45.6715L9.98462 39.7805Z" fill="#CEE8FA" fill-opacity="1.000000" fill-rule="evenodd"/>
		<path id="Vector" d="M18.1371 47.4891L9.98453 47.4891C8.96381 47.4891 8.1394 46.6769 8.1394 45.6715L8.1394 39.7805C8.1394 38.775 8.96381 37.9629 9.98453 37.9629L18.124 37.9629C19.1447 37.9629 19.9691 38.775 19.9691 39.7805L19.9691 45.6715C19.9822 46.6769 19.1578 47.4891 18.1371 47.4891ZM11.8427 43.8539L16.2919 43.8539L16.2919 41.598L11.8427 41.598L11.8427 43.8539Z" fill="#2D527C" fill-opacity="1.000000" fill-rule="nonzero"/>
		<path id="Vector" d="M9.98462 20.3286L18.1241 20.3286L18.1241 26.2196L9.98462 26.2196L9.98462 20.3286Z" fill="#CEE8FA" fill-opacity="1.000000" fill-rule="evenodd"/>
		<path id="Vector" d="M18.1371 28.0372L9.98453 28.0372C8.96381 28.0372 8.1394 27.225 8.1394 26.2196L8.1394 20.3286C8.1394 19.3231 8.96381 18.511 9.98453 18.511L18.124 18.511C19.1447 18.511 19.9691 19.3231 19.9691 20.3286L19.9691 26.2196C19.9822 27.225 19.1578 28.0372 18.1371 28.0372ZM11.8427 24.402L16.2919 24.402L16.2919 22.1461L11.8427 22.1461L11.8427 24.402Z" fill="#2D527C" fill-opacity="1.000000" fill-rule="nonzero"/>
		<path id="Vector" d="M33.9841 43.377C33.513 43.377 33.0419 43.1965 32.6755 42.8484C31.9558 42.1395 31.9558 40.9793 32.6755 40.2703L37.9622 35.0625C38.682 34.3535 39.8597 34.3535 40.5794 35.0625C41.2992 35.7715 41.2992 36.9316 40.5794 37.6406L35.2927 42.8484C34.9263 43.1965 34.4552 43.377 33.9841 43.377Z" fill="#F0BF5F" fill-opacity="1.000000" fill-rule="nonzero"/>
		<path id="Vector" d="M46.4159 31.1309C45.9448 31.1309 45.4737 30.9504 45.1073 30.6024C44.3876 29.8934 44.3876 28.7332 45.1073 28.0243L50.0538 23.1516C50.7735 22.4426 51.9512 22.4426 52.671 23.1516C53.3907 23.8606 53.3907 25.0208 52.671 25.7297L47.7245 30.6024C47.3712 30.9504 46.887 31.1309 46.4159 31.1309Z" fill="#F0BF5F" fill-opacity="1.000000" fill-rule="nonzero"/>
		<path id="Vector" d="M38.839 31.0407C38.3679 31.0407 37.8968 30.8602 37.5304 30.5121L32.6755 25.7297C31.9558 25.0208 31.9558 23.8606 32.6755 23.1516C33.3953 22.4426 34.573 22.4426 35.2927 23.1516L40.1476 27.934C40.8673 28.643 40.8673 29.8032 40.1476 30.5121C39.7943 30.8731 39.3101 31.0407 38.839 31.0407Z" fill="#F0BF5F" fill-opacity="1.000000" fill-rule="nonzero"/>
		<path id="Vector" d="M51.3623 43.3768C50.8912 43.3768 50.4201 43.1964 50.0537 42.8483L45.1334 38.0015C44.4137 37.2925 44.4137 36.1323 45.1334 35.4233C45.8531 34.7144 47.0309 34.7144 47.7506 35.4233L52.6709 40.2702C53.3907 40.9792 53.3907 42.1393 52.6709 42.8483C52.3045 43.1964 51.8334 43.3768 51.3623 43.3768Z" fill="#F0BF5F" fill-opacity="1.000000" fill-rule="nonzero"/>
	</g>
</svg>
