<svg width="64.000000" height="66.000000" viewBox="0 0 64 66" fill="none" xmlns="http://www.w3.org/2000/svg" xmlns:xlink="http://www.w3.org/1999/xlink">
	<desc>
			Created with Pixso.
	</desc>
	<defs>
		<clipPath id="clip370726_480">
			<rect id="swimming-pool" width="64.000000" height="66.000000" fill="white" fill-opacity="0"/>
		</clipPath>
	</defs>
	<rect id="swimming-pool" width="64.000000" height="66.000000" fill="#FFFFFF" fill-opacity="0"/>
	<g clip-path="url(#clip370726_480)">
		<path id="Vector" d="M32.7876 29.5453C31.8 29.5453 30.9875 28.7203 30.9875 27.6891L30.9875 6.63867C31 3.32578 33.7751 0.644531 37.2 0.644531C40.625 0.644531 43.4001 3.33868 43.4001 6.65155C43.4001 7.66992 42.6001 8.50781 41.6001 8.50781C40.6001 8.50781 39.8 7.6828 39.8 6.65155C39.8 5.38828 38.625 4.35703 37.1875 4.35703C35.75 4.35703 34.575 5.38828 34.575 6.65155L34.575 27.702C34.5876 28.7074 33.7876 29.5453 32.7876 29.5453Z" fill="#F0BF5F" fill-opacity="1.000000" fill-rule="nonzero"/>
		<path id="Vector" d="M53.3875 34.9078C52.4 34.9078 51.5875 34.0828 51.5875 33.0516L51.5875 6.63867C51.6 3.32578 54.375 0.644531 57.8 0.644531C61.225 0.644531 64 3.32578 64 6.63867C64 7.65704 63.2 8.49493 62.2 8.49493C61.2125 8.49493 60.4 7.66992 60.4 6.63867C60.4 5.3754 59.225 4.34415 57.7875 4.34415C56.35 4.34415 55.175 5.3754 55.175 6.63867L55.175 33.0516C55.1875 34.0699 54.3875 34.9078 53.3875 34.9078Z" fill="#F0BF5F" fill-opacity="1.000000" fill-rule="nonzero"/>
		<path id="Vector" d="M42.5007 16.1134L32.8007 16.1134C31.8132 16.1134 31.0007 15.2884 31.0007 14.2571C31.0007 13.2259 31.8007 12.4009 32.8007 12.4009L42.5007 12.4009C43.4882 12.4009 44.3007 13.2259 44.3007 14.2571C44.3007 15.2884 43.4882 16.1134 42.5007 16.1134Z" fill="#F0BF5F" fill-opacity="1.000000" fill-rule="nonzero"/>
		<path id="Vector" d="M42.5007 29.5453L32.8007 29.5453C31.8132 29.5453 31.0007 28.7203 31.0007 27.689C31.0007 26.6578 31.8007 25.8328 32.8007 25.8328L42.5007 25.8328C43.4882 25.8328 44.3007 26.6578 44.3007 27.689C44.2882 28.7074 43.4882 29.5453 42.5007 29.5453Z" fill="#F0BF5F" fill-opacity="1.000000" fill-rule="nonzero"/>
		<path id="Vector" d="M53.3875 22.8292L43.6875 22.8292C42.7 22.8292 41.8875 22.0042 41.8875 20.973C41.8875 19.9417 42.6875 19.1167 43.6875 19.1167L53.3875 19.1167C54.375 19.1167 55.1875 19.9417 55.1875 20.973C55.1875 22.0042 54.3875 22.8292 53.3875 22.8292Z" fill="#F0BF5F" fill-opacity="1.000000" fill-rule="nonzero"/>
		<path id="Vector" d="M58.9624 48.3528C58.9624 50.5699 56.3999 52.3618 53.2249 52.3618C50.0624 52.3618 47.4874 50.5699 47.4874 48.3528C47.4874 50.5699 44.9249 52.3618 41.7499 52.3618C38.5874 52.3618 36.0125 50.5699 36.0125 48.3528L36.0999 48.3528C36.0999 50.5699 33.5374 52.3618 30.3624 52.3618C27.1874 52.3618 24.6249 50.5699 24.6249 48.3528C24.6249 50.5699 22.0625 52.3618 18.8875 52.3618C15.7124 52.3618 13.1499 50.5699 13.1499 48.3528L13.2375 48.3528C13.2375 50.5699 10.675 52.3618 7.49995 52.3618C4.32495 52.3618 1.76245 50.5699 1.76245 48.3528L1.76245 37.009C1.76245 39.2262 4.32495 41.018 7.49995 41.018C10.675 41.018 13.2375 39.2262 13.2375 37.009L13.1499 37.009C13.1499 39.2262 15.7124 41.018 18.8875 41.018C22.0625 41.018 24.6249 39.2262 24.6249 37.009C24.6249 39.2262 27.1874 41.018 30.3624 41.018C33.5374 41.018 36.0999 39.2262 36.0999 37.009L36.0125 37.009C36.0125 39.2262 38.575 41.018 41.7499 41.018C44.9249 41.018 47.4874 39.2262 47.4874 37.009C47.4874 39.2262 50.0499 41.018 53.2249 41.018C56.3999 41.018 58.9624 39.2262 58.9624 37.009L58.9624 48.3528Z" fill="#CEE8FA" fill-opacity="1.000000" fill-rule="nonzero"/>
		<path id="Vector" d="M53.225 54.2181C50.9 54.2181 48.8625 53.4446 47.4875 52.1942C46.1125 53.4446 44.075 54.2181 41.75 54.2181C39.475 54.2181 37.4375 53.4575 36.0625 52.2329C34.6875 53.4575 32.65 54.2181 30.375 54.2181C28.05 54.2181 26.0125 53.4446 24.6375 52.1942C23.2625 53.4446 21.225 54.2181 18.9 54.2181C16.625 54.2181 14.5875 53.4575 13.2125 52.2329C11.8375 53.4704 9.8 54.2181 7.52499 54.2181C3.3 54.2181 0 51.64 0 48.3528L0 37.0091C0 35.9907 0.800003 35.1528 1.8 35.1528C2.8 35.1528 3.60001 35.9778 3.60001 37.0091C3.60001 38.0016 5.325 39.1618 7.53751 39.1618C9.53751 39.1618 11.075 38.2723 11.4125 37.37C11.4 37.254 11.4 37.1251 11.4 37.0091C11.4 35.9907 12.2 35.1528 13.2 35.1528L13.2875 35.1528C14.275 35.1528 15.0875 35.9778 15.0875 37.0091C15.0875 37.1251 15.0875 37.254 15.075 37.37C15.4125 38.2723 16.95 39.1618 18.95 39.1618C21.1625 39.1618 22.8875 38.0016 22.8875 37.0091C22.8875 35.9907 23.6875 35.1528 24.6875 35.1528C25.6875 35.1528 26.4875 35.9778 26.4875 37.0091C26.4875 38.0016 28.2125 39.1618 30.425 39.1618C32.425 39.1618 33.9625 38.2723 34.3 37.37C34.2875 37.254 34.2875 37.1251 34.2875 37.0091C34.2875 35.9907 35.0875 35.1528 36.0875 35.1528L36.175 35.1528C37.1625 35.1528 37.975 35.9778 37.975 37.0091C37.975 37.1251 37.975 37.254 37.9625 37.37C38.3 38.2723 39.8375 39.1618 41.8375 39.1618C44.05 39.1618 45.775 38.0016 45.775 37.0091C45.775 35.9907 46.575 35.1528 47.575 35.1528C48.5625 35.1528 49.375 35.9778 49.375 37.0091C49.375 38.0016 51.1 39.1618 53.3125 39.1618C55.525 39.1618 57.25 38.0016 57.25 37.0091C57.25 35.9907 58.05 35.1528 59.05 35.1528C60.05 35.1528 60.85 35.9778 60.85 37.0091L60.85 48.3528C60.7625 51.64 57.45 54.2181 53.225 54.2181ZM49.2875 48.3528C49.2875 49.3454 51.0125 50.5056 53.225 50.5056C55.4375 50.5056 57.1625 49.3454 57.1625 48.3528L57.1625 42.0236C56.025 42.5521 54.675 42.8615 53.225 42.8615C50.9 42.8615 48.8625 42.088 47.4875 40.8376C46.1125 42.088 44.075 42.8615 41.75 42.8615C39.475 42.8615 37.4375 42.1009 36.0625 40.8763C34.6875 42.1138 32.65 42.8615 30.375 42.8615C28.05 42.8615 26.0125 42.088 24.6375 40.8376C23.2625 42.088 21.225 42.8615 18.9 42.8615C16.625 42.8615 14.5875 42.1009 13.2125 40.8763C11.8375 42.1138 9.8 42.8615 7.52499 42.8615C6.075 42.8615 4.72501 42.5521 3.58749 42.0236L3.58749 48.3528C3.58749 49.3454 5.3125 50.5056 7.52499 50.5056C9.52499 50.5056 11.0625 49.6161 11.4 48.7137C11.3875 48.5978 11.3875 48.4689 11.3875 48.3528C11.3875 47.3345 12.1875 46.4966 13.1875 46.4966L13.275 46.4966C14.2625 46.4966 15.075 47.3216 15.075 48.3528C15.075 48.4689 15.075 48.5978 15.0625 48.7137C15.4 49.6161 16.9375 50.5056 18.9375 50.5056C21.15 50.5056 22.875 49.3454 22.875 48.3528C22.875 47.3345 23.675 46.4966 24.675 46.4966C25.675 46.4966 26.475 47.3216 26.475 48.3528C26.475 49.3454 28.2 50.5056 30.4125 50.5056C32.4125 50.5056 33.95 49.6161 34.2875 48.7137C34.275 48.5978 34.275 48.4689 34.275 48.3528C34.275 47.3345 35.075 46.4966 36.075 46.4966L36.1625 46.4966C37.15 46.4966 37.9625 47.3216 37.9625 48.3528C37.9625 48.4689 37.9625 48.5978 37.95 48.7137C38.2875 49.6161 39.825 50.5056 41.825 50.5056C44.0375 50.5056 45.7625 49.3454 45.7625 48.3528C45.7625 47.3345 46.5625 46.4966 47.5625 46.4966C48.4875 46.5095 49.2875 47.3345 49.2875 48.3528Z" fill="#2D527C" fill-opacity="1.000000" fill-rule="nonzero"/>
		<path id="Vector" d="M41.7625 65.3555C39.4624 65.3555 37.4375 64.595 36.075 63.3704C34.7 64.595 32.675 65.3555 30.3875 65.3555C28.0625 65.3555 26.0249 64.5821 24.6499 63.3317C23.2749 64.5821 21.2375 65.3555 18.9124 65.3555C14.6875 65.3555 11.3875 62.7774 11.3875 59.4903C11.3875 58.4719 12.1875 57.634 13.1875 57.634L13.2749 57.634C14.2625 57.634 15.075 58.459 15.075 59.4903C15.075 59.5934 15.0625 59.7094 15.05 59.8126C15.3625 60.7278 16.95 61.6559 18.9375 61.6559C21.1499 61.6559 22.875 60.4957 22.875 59.5032C22.875 58.4848 23.675 57.6469 24.6749 57.6469C25.6749 57.6469 26.4749 58.4719 26.4749 59.5032C26.4749 60.4957 28.2 61.6559 30.4124 61.6559C32.375 61.6559 33.9375 60.7535 34.2749 59.8512C34.2625 59.7352 34.2625 59.6192 34.2625 59.4903C34.2625 58.4719 35.0625 57.634 36.0624 57.634L36.1499 57.634C37.1375 57.634 37.95 58.459 37.95 59.4903C37.95 59.6063 37.95 59.7223 37.9374 59.8512C38.2749 60.7535 39.8499 61.6559 41.7999 61.6559C44.0125 61.6559 45.7374 60.4957 45.7374 59.5032C45.7374 58.4848 46.5374 57.6469 47.5374 57.6469C48.5249 57.6469 49.3374 58.4719 49.3374 59.5032C49.2874 62.7903 45.9874 65.3555 41.7625 65.3555Z" fill="#2D527C" fill-opacity="1.000000" fill-rule="nonzero"/>
	</g>
</svg>
